<svg id="Chat_bot-pana_1_" data-name="Chat bot-pana (1)" xmlns="http://www.w3.org/2000/svg" width="530.856" height="502.03" viewBox="0 0 530.856 502.03">
  <g id="freepik--background-complete--inject-106" transform="translate(21.657)">
    <path id="Caminho_611" data-name="Caminho 611" d="M91.239,408.21,78.887,399.7s-7.135,10.377-18.035,3.149a12.143,12.143,0,0,1-5.287-13.038,13.433,13.433,0,0,1,7.762-9.4c4.462-2.01,11.214-1.987,18.534,5.206l19.15-27.889L88.8,349.33,77.585,365.6s-20.173-7.356-33.164,11.516c-12.422,18.058.883,33.4,7.82,38.161C57.54,419.005,76.423,430.149,91.239,408.21Z" transform="translate(-39.32 17.626)" fill="#ebebeb"/>
    <rect id="Retângulo_9" data-name="Retângulo 9" width="15.037" height="14.049" transform="matrix(-0.824, -0.567, 0.567, -0.824, 65.611, 369.685)" fill="#ebebeb"/>
    <path id="Caminho_612" data-name="Caminho 612" d="M129.35,431.608l6.554-1.731a5.81,5.81,0,0,1,4.241-7.112,5.473,5.473,0,0,1,6.031,2.034,6.066,6.066,0,0,1,.941,5.427c-.627,2.126-2.626,4.439-7.251,4.822l3.893,14.793,6.484-1.708-2.324-8.669a13.1,13.1,0,0,0,5.81-14.769c-2.533-9.587-11.725-9.552-15.4-8.576C135.579,416.862,126.178,420.069,129.35,431.608Z" transform="translate(-24.838 28.379)" fill="#ebebeb"/>
    <rect id="Retângulo_10" data-name="Retângulo 10" width="6.809" height="6.356" transform="matrix(0.967, -0.255, 0.255, 0.967, 119.736, 481.25)" fill="#ebebeb"/>
    <path id="Caminho_613" data-name="Caminho 613" d="M227.226,75.22a43.158,43.158,0,0,1,10.621-4.648l2.185-10.458L257.8,59.8l2.556,10.458A43.2,43.2,0,0,1,271.139,74.5l8.982-5.891L292.9,80.949l-5.566,9.18a43.912,43.912,0,0,1,4.648,10.633l10.516,2.185.3,17.767-10.458,2.556a43.656,43.656,0,0,1-4.241,10.784l5.88,8.982-12.341,12.782-9.18-5.566a43.239,43.239,0,0,1-10.633,4.648l-2.185,10.528-17.767.3-2.556-10.458a42.763,42.763,0,0,1-10.784-4.241l-8.982,5.891-12.782-12.341,5.566-9.18a43.239,43.239,0,0,1-4.648-10.633l-10.458-2.185-.314-17.767,10.458-2.556a43.205,43.205,0,0,1,4.207-10.853l-5.891-8.982,12.341-12.782Zm9.471,23.67a19.057,19.057,0,1,0,26.947-.511,19.057,19.057,0,0,0-26.947.511Z" transform="translate(-13.785 -29.285)" fill="#f5f5f5"/>
    <path id="Caminho_614" data-name="Caminho 614" d="M161.442,42.429a25.25,25.25,0,0,1,6.124-2.649l1.255-6.066,10.237-.174,1.476,6.008a24.8,24.8,0,0,1,6.205,2.44l5.171-3.393,7.321,7.1-3.207,5.287a25.03,25.03,0,0,1,2.661,6.124l6.054,1.255.174,10.237-6.008,1.5a24.624,24.624,0,0,1-2.44,6.205l3.393,5.171-7.112,7.367-5.287-3.207a25.031,25.031,0,0,1-6.124,2.661l-1.3,6.043-10.237.186-1.383-6.008a25.286,25.286,0,0,1-6.205-2.452l-5.171,3.393-7.367-7.112,3.161-5.276a24.762,24.762,0,0,1-2.661-6.112l-6.054-1.267-.186-10.237,6.019-1.464a24.7,24.7,0,0,1,2.44-6.217L149,46.6l7.112-7.356Zm5.45,13.642a430.3,430.3,0,1,0-.046,0Z" transform="translate(-22.371 -33.54)" fill="#ebebeb"/>
    <path id="Caminho_615" data-name="Caminho 615" d="M442.505,205.949a25.2,25.2,0,0,1,6.112-2.661l1.267-6.054,10.226-.174,1.476,6.008a24.706,24.706,0,0,1,6.217,2.44l5.171-3.393,7.356,7.112-3.207,5.287a25.034,25.034,0,0,1,2.661,6.124l6.066,1.255.174,10.237-6.008,1.476a25.716,25.716,0,0,1-2.44,6.205l3.382,5.171-7.1,7.367-5.287-3.207a25.032,25.032,0,0,1-6.124,2.661l-1.267,6.054-10.226.186-1.476-6.019a24.623,24.623,0,0,1-6.205-2.44l-5.183,3.393-7.356-7.112,3.207-5.287a24.845,24.845,0,0,1-2.661-6.124l-6.054-1.255-.186-10.237,6.008-1.476a25.717,25.717,0,0,1,2.44-6.205l-3.382-5.171,7.1-7.367,5.3,3.207Zm5.45,13.631a10.981,10.981,0,1,0,15.525-.267,10.981,10.981,0,0,0-15.525.267Z" transform="translate(23.176 -7.046)" fill="#ebebeb"/>
  </g>
  <g id="freepik--Floor--inject-106" transform="translate(22.703 501.426)">
    <path id="Caminho_616" data-name="Caminho 616" d="M532.408,465.352c0,.174-110.195.3-246.082.3s-246.105-.128-246.105-.3,110.16-.3,246.105-.3S532.408,465.189,532.408,465.352Z" transform="translate(-40.22 -465.05)" fill="#263238"/>
  </g>
  <g id="freepik--Device--inject-106" transform="translate(260.36 15.211)">
    <path id="Caminho_617" data-name="Caminho 617" d="M445.677,532.3l-165.008-.093a35.953,35.953,0,0,1-35.93-35.953l.081-413.681A36.023,36.023,0,0,1,280.844,46.63l165.008.1a35.953,35.953,0,0,1,35.93,35.953L481.7,496.369a35.93,35.93,0,0,1-36.023,35.93Z" transform="translate(-244.74 -46.63)" fill="#455a64"/>
    <path id="Caminho_618" data-name="Caminho 618" d="M444.1,59.27H412.107a7.96,7.96,0,0,0-7.774,8.134v5.81a7.96,7.96,0,0,1-7.774,8.134H334.194a7.96,7.96,0,0,1-7.762-8.134V67.4a7.96,7.96,0,0,0-7.774-8.134H279.4a25.169,25.169,0,0,0-25.193,25.077l-.081,403.827A25.181,25.181,0,0,0,279.3,513.308l164.694.093a25.181,25.181,0,0,0,25.193-25.169l.07-403.827A25.169,25.169,0,0,0,444.1,59.27Z" transform="translate(-243.219 -44.582)" fill="#fff"/>
    <path id="Caminho_619" data-name="Caminho 619" d="M469.233,144.144V83.986A25.169,25.169,0,0,0,444.087,59.27H412.1a7.948,7.948,0,0,0-7.774,8.134v5.81a7.96,7.96,0,0,1-7.774,8.134H334.182a7.96,7.96,0,0,1-7.762-8.134V67.4a7.96,7.96,0,0,0-7.774-8.134H279.393A25.169,25.169,0,0,0,254.2,84.347V144.33H469.233Z" transform="translate(-243.207 -44.582)" fill="#ebebeb"/>
    <ellipse id="Elipse_5" data-name="Elipse 5" cx="26.064" cy="26.006" rx="26.064" ry="26.006" transform="translate(28.783 129.148)" fill="#e0e0e0"/>
    <path id="Caminho_620" data-name="Caminho 620" d="M281.46,185.831l6.833-.581,16.663,2.812L306.92,200.6l-.279,1.464a26.215,26.215,0,0,1-24.7.569l-.476-16.8" transform="translate(-238.79 -24.17)" fill="#455a64"/>
    <path id="Caminho_621" data-name="Caminho 621" d="M298.61,187.513a8.9,8.9,0,0,1,8.645,3.8,49.751,49.751,0,0,1,3.1,4.915c-2.719,2.952-4.927,5.194-8.692,6.507Z" transform="translate(-236.012 -23.819)" fill="#455a64"/>
    <path id="Caminho_622" data-name="Caminho 622" d="M282.631,185.75s-4.509.558-6.252,4.4-2.15,5.043-2.15,5.043c2.324,2.812,5.3,6.135,8.936,7.379,0,0,.825-9.691.93-12.422C284.223,187.2,284.34,185.669,282.631,185.75Z" transform="translate(-239.962 -24.089)" fill="#455a64"/>
    <path id="Caminho_623" data-name="Caminho 623" d="M285.331,165.211a12.329,12.329,0,0,1,9.552-4.741,13.32,13.32,0,0,1,4.65.837,6.8,6.8,0,0,1,3.9,2.579,11.318,11.318,0,0,1,2.254,5.229,32.24,32.24,0,0,1,.279,5.891,10.807,10.807,0,0,1-1.848,5.543l-5.008.86a31.188,31.188,0,0,1-8.262-.442,10.609,10.609,0,0,1-6.763-4.439C282.077,173.264,282.914,168.186,285.331,165.211Z" transform="translate(-238.548 -28.185)" fill="#263238"/>
    <path id="Caminho_624" data-name="Caminho 624" d="M280.844,177.446a3.753,3.753,0,0,1,1.7-2.812,2.7,2.7,0,0,1,3.161.279l.79.93a3.23,3.23,0,0,1,1.859,3.254,3.486,3.486,0,0,1-2.464,2.893,3.916,3.916,0,0,1-3.73-.895A4.393,4.393,0,0,1,280.844,177.446Z" transform="translate(-238.895 -25.953)" fill="#263238"/>
    <path id="Caminho_625" data-name="Caminho 625" d="M281.75,180.68a1.708,1.708,0,0,1-.267-.988,4.578,4.578,0,0,1,1.162-2.254,6.741,6.741,0,0,1,2.01-1.6c.581-.314.988-.43.976-.465a2.58,2.58,0,0,0-1.057.314,5.81,5.81,0,0,0-2.115,1.6,5.438,5.438,0,0,0-.813,1.162,2.847,2.847,0,0,0-.325,1.162,1.43,1.43,0,0,0,.221.79C281.645,180.634,281.75,180.75,281.75,180.68Z" transform="translate(-238.813 -25.771)" fill="#455a64"/>
    <path id="Caminho_626" data-name="Caminho 626" d="M298.382,190.7v-4.648s4.079-.453,5.217-5.682a56.03,56.03,0,0,0,.628-10.458c0-3.172-2.731-7.5-6.658-7.507l-1.743-.209-6.682,2.649a1.871,1.871,0,0,0-1.766,1.79l-.2,22.322,3.056,4.288a4.509,4.509,0,0,0,8.134-2.591Z" transform="translate(-237.864 -27.905)" fill="#ffbe9d"/>
    <path id="Caminho_627" data-name="Caminho 627" d="M294.531,176.933a1.069,1.069,0,0,1,.383-.686,1.162,1.162,0,0,1,1.383-.081,1.546,1.546,0,0,1,.581,1.429h0a1.417,1.417,0,0,1-1,.581h-.186a1.123,1.123,0,0,1-1.162-1.243Z" transform="translate(-236.673 -25.673)" fill="#eb996e"/>
    <path id="Caminho_628" data-name="Caminho 628" d="M299.95,172.091a.674.674,0,0,1-.686.651.662.662,0,0,1-.674-.651.686.686,0,0,1,.7-.651.651.651,0,0,1,.662.651Z" transform="translate(-236.015 -26.408)" fill="#263238"/>
    <path id="Caminho_629" data-name="Caminho 629" d="M301.1,170.669c-.093.081-.593-.325-1.313-.36s-1.29.3-1.36.209.058-.2.3-.36a1.918,1.918,0,0,1,1.092-.267,1.731,1.731,0,0,1,1.034.4C301.06,170.471,301.13,170.634,301.1,170.669Z" transform="translate(-236.045 -26.659)" fill="#263238"/>
    <path id="Caminho_630" data-name="Caminho 630" d="M296.775,176.147a5.275,5.275,0,0,1,1.162-.139c.186,0,.372,0,.407-.163a.953.953,0,0,0-.093-.558l-.476-1.441a24.739,24.739,0,0,1-1.034-3.777,24.475,24.475,0,0,1,1.336,3.684c.163.5.3.988.453,1.453a1.162,1.162,0,0,1,.058.732.546.546,0,0,1-.325.256,1.532,1.532,0,0,1-.314,0,4.347,4.347,0,0,1-1.174-.047Z" transform="translate(-236.315 -26.63)" fill="#263238"/>
    <path id="Caminho_631" data-name="Caminho 631" d="M297.772,183.064a13.445,13.445,0,0,1-6.972-2.324s1.685,3.753,6.972,3.556Z" transform="translate(-237.277 -24.901)" fill="#eb996e"/>
    <path id="Caminho_632" data-name="Caminho 632" d="M294.92,175.64c.128,0,.081.79.732,1.383s1.487.558,1.487.662-.2.151-.546.139a2.022,2.022,0,0,1-1.255-.511,1.743,1.743,0,0,1-.558-1.162C294.768,175.814,294.873,175.628,294.92,175.64Z" transform="translate(-236.632 -25.727)" fill="#263238"/>
    <path id="Caminho_633" data-name="Caminho 633" d="M300.972,168.3c-.128.174-.686,0-1.336,0s-1.162.163-1.336,0,0-.256.256-.418a2.045,2.045,0,0,1,1.069-.314,1.964,1.964,0,0,1,1.081.29C300.949,168.07,301.031,168.221,300.972,168.3Z" transform="translate(-236.073 -27.035)" fill="#263238"/>
    <path id="Caminho_634" data-name="Caminho 634" d="M292.88,172.083a.686.686,0,0,0,.651.7.651.651,0,0,0,.709-.6.686.686,0,0,0-.651-.686.639.639,0,0,0-.709.593Z" transform="translate(-236.94 -26.4)" fill="#263238"/>
    <path id="Caminho_635" data-name="Caminho 635" d="M292.122,170.436c.081.093.6-.279,1.336-.267s1.255.383,1.336.3,0-.2-.279-.372a1.8,1.8,0,0,0-1.069-.349,1.755,1.755,0,0,0-1.057.314C292.157,170.238,292.075,170.389,292.122,170.436Z" transform="translate(-237.065 -26.682)" fill="#263238"/>
    <path id="Caminho_636" data-name="Caminho 636" d="M291.763,169.1c.139.174.709,0,1.383,0s1.243.139,1.383,0,0-.256-.279-.418a2.208,2.208,0,0,0-2.231,0C291.775,168.845,291.694,169.008,291.763,169.1Z" transform="translate(-237.125 -26.903)" fill="#263238"/>
    <path id="Caminho_637" data-name="Caminho 637" d="M288.644,173.9c0-.4-.372-1.348-.767-1.429-1.023-.221-2.893-.232-3.056,2.394-.221,3.591,3.486,3.068,3.486,2.963S288.575,175.25,288.644,173.9Z" transform="translate(-238.247 -26.255)" fill="#ffbe9d"/>
    <path id="Caminho_638" data-name="Caminho 638" d="M287.219,176.291a.361.361,0,0,0-.174.081.593.593,0,0,1-.465,0,1.557,1.557,0,0,1-.639-1.441,2.162,2.162,0,0,1,.232-.883.744.744,0,0,1,.5-.453.314.314,0,0,1,.36.2.619.619,0,0,1,0,.174s.081,0,.058-.2a.4.4,0,0,0-.128-.232.418.418,0,0,0-.337-.116.872.872,0,0,0-.686.511,2.126,2.126,0,0,0-.279.988,1.627,1.627,0,0,0,.813,1.615.709.709,0,0,0,.581-.058C287.219,176.418,287.219,176.3,287.219,176.291Z" transform="translate(-238.112 -26.087)" fill="#eb996e"/>
    <path id="Caminho_639" data-name="Caminho 639" d="M287.6,174.2l.906.941c3.951-3.765,11.678-13.212,11.248-12.654a11.62,11.62,0,0,0-5.647-.6c-2.94.5-8.506,1.964-8.425,5.415A18.1,18.1,0,0,0,287.6,174.2Z" transform="translate(-238.107 -27.974)" fill="#263238"/>
    <path id="Caminho_640" data-name="Caminho 640" d="M282.83,173.428v-.209a4.577,4.577,0,0,1,.244-.569,5.183,5.183,0,0,1,1.511-1.685,9.97,9.97,0,0,1,3.033-1.464c1.162-.383,2.556-.686,3.893-1.255a18.174,18.174,0,0,0,6.066-4.183,19.854,19.854,0,0,0,1.453-1.72l.36-.5a.825.825,0,0,1,.139-.163l-.1.186c-.081.116-.186.3-.337.523a17.219,17.219,0,0,1-1.418,1.766,17.662,17.662,0,0,1-2.51,2.231,17.234,17.234,0,0,1-3.579,2.022,36.8,36.8,0,0,1-3.916,1.255,9.993,9.993,0,0,0-3,1.406,5.276,5.276,0,0,0-1.522,1.615,5.46,5.46,0,0,0-.314.744Z" transform="translate(-238.568 -27.989)" fill="#455a64"/>
    <path id="Caminho_641" data-name="Caminho 641" d="M283.73,173.874a1.894,1.894,0,0,1,.139-.779,3.672,3.672,0,0,1,1.348-1.7,8.135,8.135,0,0,1,3.01-1.162,17.255,17.255,0,0,0,3.73-1.162,15.653,15.653,0,0,0,3.323-2.045,16.869,16.869,0,0,0,2.324-2.243,15.717,15.717,0,0,0,1.267-1.743c.128-.2.232-.372.3-.5a.973.973,0,0,1,.128-.174,1.059,1.059,0,0,1-.093.186l-.279.523a12.263,12.263,0,0,1-1.232,1.789,14.91,14.91,0,0,1-2.324,2.324,15.862,15.862,0,0,1-3.358,2.092,17.1,17.1,0,0,1-3.777,1.162,8.494,8.494,0,0,0-2.963,1.162,3.649,3.649,0,0,0-1.36,1.615A3.856,3.856,0,0,0,283.73,173.874Z" transform="translate(-238.423 -27.877)" fill="#455a64"/>
    <path id="Caminho_642" data-name="Caminho 642" d="M281.938,201.169a46.339,46.339,0,0,1,0-6.879A50.964,50.964,0,0,1,281.938,201.169Z" transform="translate(-238.734 -22.705)" fill="#263238"/>
    <path id="Caminho_643" data-name="Caminho 643" d="M303.33,200.91a7.43,7.43,0,0,1,0-1.162,13.5,13.5,0,0,0-.1-2.905,14.064,14.064,0,0,0-.837-2.8,6.517,6.517,0,0,1-.418-1.162,5.81,5.81,0,0,1,.569,1.081,11.167,11.167,0,0,1,.918,2.824,10.621,10.621,0,0,1,0,2.963A4.646,4.646,0,0,1,303.33,200.91Z" transform="translate(-235.467 -22.934)" fill="#263238"/>
    <path id="Caminho_644" data-name="Caminho 644" d="M425.946,216.1H337.109a8,8,0,0,1-7.983-7.983v-37.3l-9.8-8.692H425.946a7.983,7.983,0,0,1,8.041,7.995v38a7.995,7.995,0,0,1-8.041,7.983Z" transform="translate(-232.654 -27.918)" fill="#ebebeb"/>
    <path id="Caminho_645" data-name="Caminho 645" d="M408.483,213.817a75.537,75.537,0,0,1-9.482.3,75.436,75.436,0,0,1-9.471-.3,75.431,75.431,0,0,1,9.471-.3,75.537,75.537,0,0,1,9.482.3Z" transform="translate(-221.28 -19.596)" fill="#e0e0e0"/>
    <path id="Caminho_646" data-name="Caminho 646" d="M409.507,215.028a.29.29,0,0,1-.209-.093l-1.836-1.917a.29.29,0,0,1,0-.407.279.279,0,0,1,.407,0l1.627,1.7,3.567-3.626a.279.279,0,0,1,.407,0,.29.29,0,0,1,0,.407l-3.777,3.846a.337.337,0,0,1-.186.093Z" transform="translate(-218.388 -20.064)" fill="#fa320d"/>
    <path id="Caminho_647" data-name="Caminho 647" d="M411.547,214.977h-.337a.29.29,0,0,1-.29-.291.325.325,0,0,1,.3-.29h.209l3.684-3.753a.292.292,0,0,1,.418.407l-3.777,3.835a.267.267,0,0,1-.209.093Z" transform="translate(-217.815 -20.07)" fill="#fa320d"/>
    <path id="Caminho_648" data-name="Caminho 648" d="M408.483,339.487a75.54,75.54,0,0,1-9.482.3,75.43,75.43,0,0,1-9.47-.3,75.453,75.453,0,0,1,9.47-.3,75.541,75.541,0,0,1,9.482.3Z" transform="translate(-221.28 0.766)" fill="#e0e0e0"/>
    <path id="Caminho_649" data-name="Caminho 649" d="M409.515,340.7h0a.291.291,0,0,1-.244-.093l-1.836-1.917a.29.29,0,1,1,.418-.4l1.627,1.7,3.567-3.626a.279.279,0,0,1,.407,0,.291.291,0,0,1,0,.407l-3.73,3.835A.337.337,0,0,1,409.515,340.7Z" transform="translate(-218.397 0.3)" fill="#fa320d"/>
    <path id="Caminho_650" data-name="Caminho 650" d="M411.547,340.617h-.337a.3.3,0,0,1-.29-.3.279.279,0,0,1,.3-.279h.209l3.684-3.753a.292.292,0,0,1,.418.407l-3.777,3.835a.267.267,0,0,1-.209.093Z" transform="translate(-217.815 0.287)" fill="#fa320d"/>
    <path id="Caminho_651" data-name="Caminho 651" d="M422.179,171.352c0,.163-19.394.3-43.32.3s-43.309-.139-43.309-.3,19.383-.3,43.309-.3S422.179,171.178,422.179,171.352Z" transform="translate(-230.026 -26.471)" fill="#fff"/>
    <path id="Caminho_652" data-name="Caminho 652" d="M422.179,176.822c0,.174-19.394.3-43.32.3s-43.309-.128-43.309-.3,19.383-.3,43.309-.3S422.179,176.659,422.179,176.822Z" transform="translate(-230.026 -25.584)" fill="#fff"/>
    <path id="Caminho_653" data-name="Caminho 653" d="M422.179,182.3c0,.163-19.394.3-43.32.3s-43.309-.139-43.309-.3,19.383-.3,43.309-.3S422.179,182.139,422.179,182.3Z" transform="translate(-230.026 -24.697)" fill="#fff"/>
    <ellipse id="Elipse_6" data-name="Elipse 6" cx="26.064" cy="26.006" rx="26.064" ry="26.006" transform="translate(28.783 291.331)" fill="#e0e0e0"/>
    <path id="Caminho_654" data-name="Caminho 654" d="M281.46,325.4l6.833-.581,16.663,2.812,1.964,12.5-.279,1.453a26.181,26.181,0,0,1-24.7.569l-.476-16.791" transform="translate(-238.79 -1.556)" fill="#455a64"/>
    <path id="Caminho_655" data-name="Caminho 655" d="M298.61,327.073a8.925,8.925,0,0,1,8.646,3.8,48.894,48.894,0,0,1,3.1,4.927c-2.719,2.952-4.927,5.194-8.692,6.5Z" transform="translate(-236.012 -1.206)" fill="#455a64"/>
    <path id="Caminho_656" data-name="Caminho 656" d="M282.631,325.321s-4.509.546-6.252,4.392-2.15,5.055-2.15,5.055c2.324,2.8,5.3,6.124,8.936,7.367,0,0,.825-9.68.93-12.422C284.223,326.715,284.34,325.228,282.631,325.321Z" transform="translate(-239.962 -1.476)" fill="#455a64"/>
    <path id="Caminho_657" data-name="Caminho 657" d="M285.331,304.781a12.294,12.294,0,0,1,9.552-4.741,13.074,13.074,0,0,1,4.648.825,6.9,6.9,0,0,1,3.9,2.58,11.377,11.377,0,0,1,2.254,5.229,32.425,32.425,0,0,1,.279,5.9,10.726,10.726,0,0,1-1.848,5.531l-5.008.872a31.689,31.689,0,0,1-8.262-.442,10.609,10.609,0,0,1-6.763-4.439C282.077,312.776,282.914,307.744,285.331,304.781Z" transform="translate(-238.548 -5.571)" fill="#263238"/>
    <path id="Caminho_658" data-name="Caminho 658" d="M280.844,317.057a3.73,3.73,0,0,1,1.7-2.812,2.684,2.684,0,0,1,3.161.267l.79.941a3.219,3.219,0,0,1,1.859,3.254,3.556,3.556,0,0,1-2.464,2.893,3.928,3.928,0,0,1-3.73-.906A4.369,4.369,0,0,1,280.844,317.057Z" transform="translate(-238.895 -3.333)" fill="#263238"/>
    <path id="Caminho_659" data-name="Caminho 659" d="M281.75,320.252a1.777,1.777,0,0,1-.267-1,4.543,4.543,0,0,1,1.162-2.243,6.552,6.552,0,0,1,2.01-1.6c.581-.314.988-.43.976-.476a2.823,2.823,0,0,0-1.057.314,6.054,6.054,0,0,0-2.115,1.6,5.814,5.814,0,0,0-.813,1.232,2.8,2.8,0,0,0-.325,1.162,1.453,1.453,0,0,0,.221.79C281.645,320.206,281.75,320.264,281.75,320.252Z" transform="translate(-238.813 -3.159)" fill="#455a64"/>
    <path id="Caminho_660" data-name="Caminho 660" d="M298.4,330.631v-4.648s4.079-.453,5.217-5.671a56.163,56.163,0,0,0,.628-10.458c0-3.172-2.731-7.5-6.658-7.507l-1.743-.2-6.682,2.649a1.859,1.859,0,0,0-1.766,1.79l-.2,22.311,3.056,4.288a4.509,4.509,0,0,0,8.134-2.591Z" transform="translate(-237.86 -5.229)" fill="#ffbe9d"/>
    <path id="Caminho_661" data-name="Caminho 661" d="M294.531,316.5a1.069,1.069,0,0,1,.383-.686,1.162,1.162,0,0,1,1.383-.081,1.546,1.546,0,0,1,.581,1.429h0a1.406,1.406,0,0,1-1,.569h-.186a1.279,1.279,0,0,1-.837-.337,1.081,1.081,0,0,1-.325-.895Z" transform="translate(-236.674 -3.059)" fill="#eb996e"/>
    <path id="Caminho_662" data-name="Caminho 662" d="M299.95,312.091a.68.68,0,1,1-.662-.651.651.651,0,0,1,.662.651Z" transform="translate(-236.015 -3.724)" fill="#263238"/>
    <path id="Caminho_663" data-name="Caminho 663" d="M301.1,310.619c-.093.081-.593-.325-1.313-.36s-1.29.29-1.36.2.058-.2.3-.349a1.755,1.755,0,0,1,1.092-.267,1.731,1.731,0,0,1,1.034.4C301.06,310.422,301.13,310.585,301.1,310.619Z" transform="translate(-236.045 -3.984)" fill="#263238"/>
    <path id="Caminho_664" data-name="Caminho 664" d="M296.775,316.1a5.636,5.636,0,0,1,1.162-.151c.186,0,.372,0,.407-.163a.964.964,0,0,0-.093-.558c-.151-.453-.314-.93-.476-1.441a25.211,25.211,0,0,1-1.034-3.765,24.008,24.008,0,0,1,1.336,3.672c.163.511.3.988.453,1.453a1.162,1.162,0,0,1,.058.732.476.476,0,0,1-.325.256,1.034,1.034,0,0,1-.314,0,4.345,4.345,0,0,1-1.174-.035Z" transform="translate(-236.315 -3.954)" fill="#263238"/>
    <path id="Caminho_665" data-name="Caminho 665" d="M297.772,323a13.491,13.491,0,0,1-6.972-2.266s1.685,3.753,6.972,3.556Z" transform="translate(-237.277 -2.219)" fill="#eb996e"/>
    <path id="Caminho_666" data-name="Caminho 666" d="M294.92,315.58c.128,0,.081.79.732,1.394s1.487.558,1.487.662-.2.139-.546.139a1.976,1.976,0,0,1-1.255-.523,1.7,1.7,0,0,1-.558-1.162C294.768,315.766,294.873,315.58,294.92,315.58Z" transform="translate(-236.632 -3.053)" fill="#263238"/>
    <path id="Caminho_667" data-name="Caminho 667" d="M300.972,308.252c-.128.174-.686,0-1.336,0s-1.162.163-1.336,0,0-.256.256-.418a1.94,1.94,0,0,1,1.069-.314,1.871,1.871,0,0,1,1.081.291C300.949,308,301.031,308.171,300.972,308.252Z" transform="translate(-236.073 -4.359)" fill="#263238"/>
    <path id="Caminho_668" data-name="Caminho 668" d="M292.88,312a.674.674,0,0,0,.651.686.639.639,0,0,0,.709-.593.686.686,0,0,0-.651-.7.651.651,0,0,0-.709.6Z" transform="translate(-236.94 -3.731)" fill="#263238"/>
    <path id="Caminho_669" data-name="Caminho 669" d="M292.122,310.376c.081.093.6-.279,1.336-.256s1.255.383,1.336.291,0-.2-.279-.372a1.882,1.882,0,0,0-1.069-.349,1.836,1.836,0,0,0-1.057.325C292.157,310.178,292.075,310.341,292.122,310.376Z" transform="translate(-237.065 -4.007)" fill="#263238"/>
    <path id="Caminho_670" data-name="Caminho 670" d="M291.763,309.039c.139.163.709,0,1.383,0s1.243.128,1.383,0,0-.244-.279-.407a2.208,2.208,0,0,0-2.231,0C291.775,308.783,291.694,308.958,291.763,309.039Z" transform="translate(-237.125 -4.228)" fill="#263238"/>
    <path id="Caminho_671" data-name="Caminho 671" d="M288.644,313.46c0-.4-.372-1.336-.767-1.418-1.023-.221-2.893-.244-3.056,2.382-.221,3.591,3.486,3.079,3.486,2.975S288.575,314.82,288.644,313.46Z" transform="translate(-238.247 -3.641)" fill="#ffbe9d"/>
    <path id="Caminho_672" data-name="Caminho 672" d="M287.219,315.859a.361.361,0,0,0-.174.081.65.65,0,0,1-.465,0,1.546,1.546,0,0,1-.639-1.429,2.114,2.114,0,0,1,.232-.883.744.744,0,0,1,.5-.453.325.325,0,0,1,.36.186.593.593,0,0,1,0,.186.21.21,0,0,0,.058-.209.43.43,0,0,0-.128-.232.453.453,0,0,0-.337-.1.848.848,0,0,0-.686.511,2.091,2.091,0,0,0-.279.988,1.615,1.615,0,0,0,.813,1.6.662.662,0,0,0,.581,0C287.219,315.94,287.219,315.859,287.219,315.859Z" transform="translate(-238.112 -3.472)" fill="#eb996e"/>
    <path id="Caminho_673" data-name="Caminho 673" d="M287.6,313.733l.906.953c3.951-3.777,11.678-13.224,11.248-12.654a11.5,11.5,0,0,0-5.647-.616c-2.94.5-8.506,1.964-8.425,5.427a18.092,18.092,0,0,0,1.917,6.891Z" transform="translate(-238.107 -5.367)" fill="#263238"/>
    <path id="Caminho_674" data-name="Caminho 674" d="M282.83,312.983v-.209a5.514,5.514,0,0,1,.244-.558,5.311,5.311,0,0,1,1.511-1.7,9.96,9.96,0,0,1,3.091-1.429c1.162-.4,2.556-.7,3.893-1.267a17.581,17.581,0,0,0,3.556-1.987,18.277,18.277,0,0,0,2.51-2.185,17.352,17.352,0,0,0,1.453-1.72c.139-.209.267-.372.36-.5s.128-.174.139-.163l-.1.186-.337.511a15.018,15.018,0,0,1-1.418,1.766,17.674,17.674,0,0,1-2.51,2.243,17.231,17.231,0,0,1-3.591,1.952c-1.348.569-2.719.872-3.916,1.255a9.993,9.993,0,0,0-3,1.394,5.3,5.3,0,0,0-1.522,1.627,6.98,6.98,0,0,0-.36.779Z" transform="translate(-238.568 -5.372)" fill="#455a64"/>
    <path id="Caminho_675" data-name="Caminho 675" d="M283.73,313.444a1.952,1.952,0,0,1,.139-.79,3.591,3.591,0,0,1,1.348-1.685,8.134,8.134,0,0,1,3.01-1.162,17.917,17.917,0,0,0,3.73-1.162,15.653,15.653,0,0,0,3.323-2.045,16.047,16.047,0,0,0,3.556-3.986c.128-.209.232-.372.3-.511a1.158,1.158,0,0,1,.128-.163,1.062,1.062,0,0,1-.093.186l-.279.523a12.259,12.259,0,0,1-1.232,1.79,14.911,14.911,0,0,1-2.324,2.324,15.374,15.374,0,0,1-3.358,2.08A17.815,17.815,0,0,1,288.2,310a8.053,8.053,0,0,0-2.963,1.162,3.486,3.486,0,0,0-1.36,1.615A3.627,3.627,0,0,0,283.73,313.444Z" transform="translate(-238.423 -5.263)" fill="#455a64"/>
    <path id="Caminho_676" data-name="Caminho 676" d="M281.938,340.728a46.2,46.2,0,0,1,0-6.868A50.792,50.792,0,0,1,281.938,340.728Z" transform="translate(-238.734 -0.091)" fill="#263238"/>
    <path id="Caminho_677" data-name="Caminho 677" d="M303.33,340.488a7.434,7.434,0,0,1,0-1.22,13.609,13.609,0,0,0-.1-2.917,14.17,14.17,0,0,0-.837-2.789,6.975,6.975,0,0,1-.418-1.162,5.811,5.811,0,0,1,.569,1.081,11.016,11.016,0,0,1,.918,2.824,10.621,10.621,0,0,1,0,2.963A4.787,4.787,0,0,1,303.33,340.488Z" transform="translate(-235.467 -0.328)" fill="#263238"/>
    <path id="Caminho_678" data-name="Caminho 678" d="M425.946,337.935H337.109a8,8,0,0,1-7.983-7.995V310.372l-9.8-8.692H425.946a8,8,0,0,1,7.983,7.983V329.94A8,8,0,0,1,425.946,337.935Z" transform="translate(-232.654 -5.305)" fill="#ebebeb"/>
    <path id="Caminho_679" data-name="Caminho 679" d="M422.179,310.912c0,.174-19.394.3-43.32.3s-43.309-.128-43.309-.3,19.383-.3,43.309-.3S422.179,310.749,422.179,310.912Z" transform="translate(-230.026 -3.858)" fill="#fff"/>
    <path id="Caminho_680" data-name="Caminho 680" d="M422.179,316.392c0,.163-19.394.3-43.32.3s-43.309-.139-43.309-.3,19.383-.3,43.309-.3S422.179,316.229,422.179,316.392Z" transform="translate(-230.026 -2.971)" fill="#fff"/>
    <path id="Caminho_681" data-name="Caminho 681" d="M422.179,321.872c0,.163-19.394.3-43.32.3s-43.309-.139-43.309-.3,19.383-.3,43.309-.3S422.179,321.7,422.179,321.872Z" transform="translate(-230.026 -2.083)" fill="#fff"/>
    <path id="Caminho_682" data-name="Caminho 682" d="M422.179,187.782c0,.163-19.394.3-43.32.3s-43.309-.139-43.309-.3,19.383-.3,43.309-.3S422.179,187.608,422.179,187.782Z" transform="translate(-230.026 -23.809)" fill="#fff"/>
    <path id="Caminho_683" data-name="Caminho 683" d="M422.179,193.252c0,.174-19.394.3-43.32.3s-43.309-.128-43.309-.3,19.383-.3,43.309-.3S422.179,193.089,422.179,193.252Z" transform="translate(-230.026 -22.922)" fill="#fff"/>
    <path id="Caminho_684" data-name="Caminho 684" d="M422.179,199.832c0,.174-19.394.3-43.32.3s-43.309-.128-43.309-.3,19.383-.3,43.309-.3S422.179,199.669,422.179,199.832Z" transform="translate(-230.026 -21.856)" fill="#fff"/>
    <path id="Caminho_685" data-name="Caminho 685" d="M336,105.234a4.648,4.648,0,0,1,8.03-2.859l-1.243,1.162a2.7,2.7,0,1,0,0,3.4l1.243,1.162a4.648,4.648,0,0,1-8.03-2.847Z" transform="translate(-229.954 -37.836)" fill="#263238"/>
    <path id="Caminho_686" data-name="Caminho 686" d="M350.474,105.786v3.707h-1.813v-3.416c0-1.046-.488-1.522-1.313-1.522A1.542,1.542,0,0,0,345.8,106.3v3.2H343.92V100.58H345.8v3.126a2.8,2.8,0,0,1,2.057-.779,2.533,2.533,0,0,1,2.615,2.859Z" transform="translate(-228.67 -37.889)" fill="#263238"/>
    <path id="Caminho_687" data-name="Caminho 687" d="M356.8,105.482v3.684h-1.755v-.8a2.115,2.115,0,0,1-1.975.895c-1.511,0-2.405-.837-2.405-1.952s.8-1.941,2.777-1.941h1.487c0-.8-.488-1.267-1.487-1.267a3.149,3.149,0,0,0-1.871.593l-.674-1.3a4.927,4.927,0,0,1,2.789-.79C355.7,102.6,356.8,103.518,356.8,105.482Zm-1.871,1.638v-.662h-1.29c-.872,0-1.162.325-1.162.767s.4.779,1.057.779a1.383,1.383,0,0,0,1.394-.883Z" transform="translate(-227.578 -37.562)" fill="#263238"/>
    <path id="Caminho_688" data-name="Caminho 688" d="M361.689,109.06a2.673,2.673,0,0,1-1.534.407,2.127,2.127,0,0,1-2.405-2.324v-2.661h-1V103.04h1v-1.58h1.871v1.58h1.615v1.441H359.62v2.638a.755.755,0,0,0,.8.848,1.162,1.162,0,0,0,.755-.244Z" transform="translate(-226.591 -37.746)" fill="#263238"/>
    <path id="Caminho_689" data-name="Caminho 689" d="M401.865,115.834c0,.163-19.754.3-44.238.3s-44.227-.139-44.227-.3,19.754-.314,44.227-.314S401.865,115.659,401.865,115.834Z" transform="translate(-233.615 -35.468)" fill="#263238"/>
    <circle id="Elipse_7" data-name="Elipse 7" cx="2.057" cy="2.057" r="2.057" transform="translate(205.388 63.284)" fill="#263238"/>
    <path id="Caminho_690" data-name="Caminho 690" d="M425.577,108.287a2.068,2.068,0,1,1-2.057-2.057,2.069,2.069,0,0,1,2.057,2.057Z" transform="translate(-216.11 -36.973)" fill="#263238"/>
    <path id="Caminho_691" data-name="Caminho 691" d="M425.577,113.477a2.068,2.068,0,1,1-2.057-2.057,2.068,2.068,0,0,1,2.057,2.057Z" transform="translate(-216.11 -36.132)" fill="#263238"/>
    <path id="Caminho_692" data-name="Caminho 692" d="M280.163,110.128a.546.546,0,0,1-.349-.116l-5.45-4a.6.6,0,0,1-.244-.476.569.569,0,0,1,.244-.465l5.45-3.928a.582.582,0,0,1,.686.941l-4.811,3.486,4.811,3.486a.593.593,0,0,1,.128.813.57.57,0,0,1-.465.256Z" transform="translate(-239.98 -37.815)" fill="#263238"/>
    <ellipse id="Elipse_8" data-name="Elipse 8" cx="26.064" cy="26.006" rx="26.064" ry="26.006" transform="translate(156.339 215.684)" fill="#e0e0e0"/>
    <path id="Caminho_693" data-name="Caminho 693" d="M410.008,268.344H396.3a1.766,1.766,0,0,1-1.766-1.766h0A1.778,1.778,0,0,1,396.3,264.8h13.712a1.778,1.778,0,0,1,1.766,1.778h0A1.766,1.766,0,0,1,410.008,268.344Z" transform="translate(-220.47 -11.281)" fill="#263238"/>
    <rect id="Retângulo_11" data-name="Retângulo 11" width="1.209" height="6.089" transform="translate(182.252 224.782)" fill="#263238"/>
    <circle id="Elipse_9" data-name="Elipse 9" cx="3.533" cy="3.533" r="3.533" transform="translate(161.556 242.062)" fill="#fa320d"/>
    <circle id="Elipse_10" data-name="Elipse 10" cx="3.533" cy="3.533" r="3.533" transform="translate(197.277 241.829)" fill="#fa320d"/>
    <path id="Caminho_694" data-name="Caminho 694" d="M405.059,244.211s14.386-.174,16.663,12.294-9.889,12.689-13.387,12.922c-1.58.1-4.973.116-7.971.07-6.635-.116-11.318-1.394-12.91-7.553a11.62,11.62,0,0,1-.36-2.208C386.675,253,391.23,243.886,405.059,244.211Z" transform="translate(-221.679 -14.618)" fill="#fa320d"/>
    <path id="Caminho_695" data-name="Caminho 695" d="M394.116,261.645l20.916.325a3.974,3.974,0,0,0,4.032-3.9h0a3.974,3.974,0,0,0-3.916-4.021l-20.916-.325a3.962,3.962,0,0,0-4.032,3.9h0a3.962,3.962,0,0,0,3.916,4.021Z" transform="translate(-221.172 -13.076)" fill="#263238"/>
    <path id="Caminho_696" data-name="Caminho 696" d="M407.833,257.3a1.349,1.349,0,1,0,1-1.487,1.266,1.266,0,0,0-1,1.487Z" transform="translate(-218.319 -12.745)" fill="#fff"/>
    <path id="Caminho_697" data-name="Caminho 697" d="M395.261,257.086a1.278,1.278,0,1,0,1.027-1.383,1.278,1.278,0,0,0-1.027,1.383Z" transform="translate(-220.353 -12.759)" fill="#fff"/>
    <path id="Caminho_698" data-name="Caminho 698" d="M404.364,240.275a1.987,1.987,0,1,1-1.987-1.975A1.987,1.987,0,0,1,404.364,240.275Z" transform="translate(-219.521 -15.575)" fill="#fa320d"/>
    <path id="Caminho_699" data-name="Caminho 699" d="M405.361,256.59a.723.723,0,0,1,.128.3,2.091,2.091,0,0,1-.081.883,2.649,2.649,0,0,1-.7,1.162,2.463,2.463,0,0,1-1.5.709,2.5,2.5,0,0,1-1.6-.418,2.811,2.811,0,0,1-.895-.988,2.114,2.114,0,0,1-.232-.86c0-.209,0-.325.07-.325a10.005,10.005,0,0,0,.5.988,2.916,2.916,0,0,0,.825.755,2.2,2.2,0,0,0,1.29.3,2.138,2.138,0,0,0,1.162-.535,2.533,2.533,0,0,0,.686-.895C405.314,257.066,405.268,256.59,405.361,256.59Z" transform="translate(-219.506 -12.611)" fill="#fff"/>
    <path id="Caminho_700" data-name="Caminho 700" d="M416.967,254.44a1.862,1.862,0,0,1,.1.3,3.647,3.647,0,0,1,.116.372,4.193,4.193,0,0,0,.116.5,10.793,10.793,0,0,1,.186,1.313,11.007,11.007,0,0,1,0,1.627,10.737,10.737,0,0,1-.267,1.6,9.294,9.294,0,0,1-.418,1.255,4.959,4.959,0,0,1-.2.476,2.992,2.992,0,0,1-.174.337l-.163.291a1,1,0,0,1,.128-.3l.151-.36c.058-.139.128-.291.186-.465a9.6,9.6,0,0,0,.383-1.255,12.264,12.264,0,0,0,.267-1.592,12.655,12.655,0,0,0,0-1.615,11.318,11.318,0,0,0-.163-1.3,4.644,4.644,0,0,0-.1-.535,1.477,1.477,0,0,0-.081-.372,1.057,1.057,0,0,1-.07-.279Z" transform="translate(-216.948 -12.959)" fill="#263238"/>
    <path id="Caminho_701" data-name="Caminho 701" d="M387.617,254.5a1.58,1.58,0,0,0-.116.314,1.58,1.58,0,0,1-.116.36,4,4,0,0,0-.116.5,9.3,9.3,0,0,0-.174,1.313,10.92,10.92,0,0,0,0,1.627,10.242,10.242,0,0,0,.267,1.6,8.977,8.977,0,0,0,.418,1.267c.058.174.139.325.2.465s.128.256.174.349l.163.279a1.38,1.38,0,0,0-.128-.3c0-.093-.093-.209-.151-.349s-.128-.29-.186-.465a9.813,9.813,0,0,1-.383-1.267,11.937,11.937,0,0,1-.267-1.592,12.508,12.508,0,0,1,0-1.6,11.538,11.538,0,0,1,.163-1.313,3.923,3.923,0,0,1,.1-.488,1.367,1.367,0,0,1,.081-.372C387.571,254.732,387.617,254.5,387.617,254.5Z" transform="translate(-221.68 -12.95)" fill="#263238"/>
    <path id="Caminho_702" data-name="Caminho 702" d="M390.21,274.422s4.276-4.172,13.212-4.172,13.514,4.172,13.514,4.172a25.867,25.867,0,0,1-26.727,0Z" transform="translate(-221.17 -10.398)" fill="#fa320d"/>
    <path id="Caminho_703" data-name="Caminho 703" d="M280.113,283.359h88.825a7.972,7.972,0,0,0,7.983-7.983V249.6l9.8-8.692h-106.6a7.983,7.983,0,0,0-7.983,7.983v26.483a7.972,7.972,0,0,0,7.983,7.983Z" transform="translate(-240.302 -15.152)" fill="#ebebeb"/>
    <path id="Caminho_704" data-name="Caminho 704" d="M363.394,251.792c0,.174-18.29.3-40.857.3s-40.857-.128-40.857-.3,18.29-.3,40.857-.3S363.394,251.629,363.394,251.792Z" transform="translate(-238.755 -13.437)" fill="#fff"/>
    <path id="Caminho_705" data-name="Caminho 705" d="M363.394,257.732c0,.174-18.29.3-40.857.3s-40.857-.128-40.857-.3,18.29-.3,40.857-.3S363.394,257.569,363.394,257.732Z" transform="translate(-238.755 -12.475)" fill="#fff"/>
    <path id="Caminho_706" data-name="Caminho 706" d="M363.394,263.672c0,.163-18.29.3-40.857.3s-40.857-.139-40.857-.3,18.29-.3,40.857-.3S363.394,263.509,363.394,263.672Z" transform="translate(-238.755 -11.513)" fill="#fff"/>
    <path id="Caminho_707" data-name="Caminho 707" d="M363.394,269.612c0,.163-18.29.3-40.857.3s-40.857-.139-40.857-.3,18.29-.3,40.857-.3S363.394,269.438,363.394,269.612Z" transform="translate(-238.755 -10.55)" fill="#fff"/>
    <ellipse id="Elipse_11" data-name="Elipse 11" cx="26.064" cy="26.006" rx="26.064" ry="26.006" transform="translate(156.339 360.1)" fill="#e0e0e0"/>
    <path id="Caminho_708" data-name="Caminho 708" d="M410.008,392.624H396.3a1.766,1.766,0,0,1-1.766-1.778h0a1.766,1.766,0,0,1,1.766-1.766h13.712a1.766,1.766,0,0,1,1.766,1.766h0a1.766,1.766,0,0,1-1.766,1.778Z" transform="translate(-220.47 8.856)" fill="#263238"/>
    <rect id="Retângulo_12" data-name="Retângulo 12" width="1.209" height="6.089" transform="translate(182.252 369.199)" fill="#263238"/>
    <circle id="Elipse_12" data-name="Elipse 12" cx="3.533" cy="3.533" r="3.533" transform="translate(161.556 386.478)" fill="#fa320d"/>
    <circle id="Elipse_13" data-name="Elipse 13" cx="3.533" cy="3.533" r="3.533" transform="translate(197.277 386.234)" fill="#fa320d"/>
    <path id="Caminho_709" data-name="Caminho 709" d="M405.059,368.491s14.386-.174,16.663,12.283-9.889,12.7-13.387,12.933c-1.58.1-4.973.116-7.971.07-6.635-.116-11.318-1.406-12.91-7.553a11.621,11.621,0,0,1-.36-2.208C386.675,377.276,391.23,368.154,405.059,368.491Z" transform="translate(-221.679 5.518)" fill="#fa320d"/>
    <path id="Caminho_710" data-name="Caminho 710" d="M394.116,385.927l20.916.325a3.974,3.974,0,0,0,4.032-3.9h0a3.974,3.974,0,0,0-3.916-4.021l-20.916-.337a3.974,3.974,0,0,0-4.032,3.9h0a3.974,3.974,0,0,0,3.916,4.032Z" transform="translate(-221.172 7.059)" fill="#263238"/>
    <path id="Caminho_711" data-name="Caminho 711" d="M407.834,381.59a1.071,1.071,0,1,1,.023.058Z" transform="translate(-218.319 7.386)" fill="#fff"/>
    <path id="Caminho_712" data-name="Caminho 712" d="M395.263,381.382a1.278,1.278,0,1,0,1.011-1.5A1.278,1.278,0,0,0,395.263,381.382Z" transform="translate(-220.355 7.362)" fill="#fff"/>
    <path id="Caminho_713" data-name="Caminho 713" d="M404.364,364.517a1.987,1.987,0,1,1-1.987-1.987A1.987,1.987,0,0,1,404.364,364.517Z" transform="translate(-219.521 4.554)" fill="#fa320d"/>
    <path id="Caminho_714" data-name="Caminho 714" d="M405.36,380.86a.843.843,0,0,1,.128.314,2.1,2.1,0,0,1-.081.883,2.719,2.719,0,0,1-.7,1.162,2.464,2.464,0,0,1-1.5.709,2.5,2.5,0,0,1-1.6-.418,2.811,2.811,0,0,1-.895-.988,2.162,2.162,0,0,1-.232-.86c0-.209,0-.325.07-.325a9.224,9.224,0,0,0,.5.976,2.789,2.789,0,0,0,.825.767,2.324,2.324,0,0,0,1.29.3,2.139,2.139,0,0,0,1.162-.535,2.754,2.754,0,0,0,.686-.895C405.314,381.325,405.268,380.872,405.36,380.86Z" transform="translate(-219.506 7.524)" fill="#fff"/>
    <path id="Caminho_715" data-name="Caminho 715" d="M416.967,378.71a.755.755,0,0,0,.1.314,2.9,2.9,0,0,1,.116.372,3.606,3.606,0,0,0,.116.488,11.516,11.516,0,0,1,.186,1.313,10.99,10.99,0,0,1,0,1.627,10.244,10.244,0,0,1-.267,1.6,8.985,8.985,0,0,1-.418,1.267,4.643,4.643,0,0,1-.2.465,2.421,2.421,0,0,1-.174.349l-.163.279a1.382,1.382,0,0,1,.128-.3c0-.093.093-.209.151-.349s.128-.29.186-.465a9.3,9.3,0,0,0,.383-1.267,11.763,11.763,0,0,0,.267-1.58,12.661,12.661,0,0,0,0-1.615,11,11,0,0,0-.163-1.3,4.15,4.15,0,0,0-.1-.5,1.478,1.478,0,0,0-.081-.372,1.079,1.079,0,0,1-.07-.325Z" transform="translate(-216.948 7.175)" fill="#263238"/>
    <path id="Caminho_716" data-name="Caminho 716" d="M387.617,378.78a1.581,1.581,0,0,0-.116.314,1.58,1.58,0,0,1-.116.36,4,4,0,0,0-.116.5,9.293,9.293,0,0,0-.174,1.313,10.92,10.92,0,0,0,0,1.627,10.454,10.454,0,0,0,.267,1.6,8.98,8.98,0,0,0,.418,1.267c.058.174.139.325.2.465s.128.256.174.349l.163.279a1.161,1.161,0,0,0-.128-.3c0-.093-.093-.209-.151-.349s-.128-.291-.186-.476a9.6,9.6,0,0,1-.383-1.255,11.937,11.937,0,0,1-.267-1.592,12.508,12.508,0,0,1,0-1.6,11.547,11.547,0,0,1,.163-1.313,3.922,3.922,0,0,1,.1-.488,1.367,1.367,0,0,1,.081-.372C387.571,379.012,387.617,378.78,387.617,378.78Z" transform="translate(-221.68 7.187)" fill="#263238"/>
    <path id="Caminho_717" data-name="Caminho 717" d="M390.21,398.7s4.276-4.172,13.212-4.172,13.514,4.172,13.514,4.172a25.867,25.867,0,0,1-26.727,0Z" transform="translate(-221.17 9.739)" fill="#fa320d"/>
    <path id="Caminho_718" data-name="Caminho 718" d="M280.113,407.639h88.825a7.972,7.972,0,0,0,7.983-7.983V373.882l9.8-8.692h-106.6a7.983,7.983,0,0,0-7.983,7.983v26.483a7.972,7.972,0,0,0,7.983,7.983Z" transform="translate(-240.302 4.985)" fill="#ebebeb"/>
    <path id="Caminho_719" data-name="Caminho 719" d="M280.113,439.928h88.825a7.983,7.983,0,0,0,7.983-7.995v-8.541l9.8-8.692h-106.6a7.983,7.983,0,0,0-7.983,7.983v9.3a7.983,7.983,0,0,0,7.983,7.948Z" transform="translate(-240.302 13.007)" fill="#ebebeb"/>
    <path id="Caminho_720" data-name="Caminho 720" d="M363.394,376.042c0,.174-18.29.3-40.857.3s-40.857-.128-40.857-.3,18.29-.3,40.857-.3S363.394,375.914,363.394,376.042Z" transform="translate(-238.755 6.694)" fill="#fff"/>
    <path id="Caminho_721" data-name="Caminho 721" d="M363.394,382.042c0,.163-18.29.3-40.857.3s-40.857-.139-40.857-.3,18.29-.3,40.857-.3S363.394,381.845,363.394,382.042Z" transform="translate(-238.755 7.666)" fill="#fff"/>
    <path id="Caminho_722" data-name="Caminho 722" d="M363.394,387.952c0,.163-18.29.3-40.857.3s-40.857-.139-40.857-.3,18.29-.3,40.857-.3S363.394,387.778,363.394,387.952Z" transform="translate(-238.755 8.624)" fill="#fff"/>
    <path id="Caminho_723" data-name="Caminho 723" d="M363.394,393.892c0,.163-18.29.3-40.857.3s-40.857-.139-40.857-.3,18.29-.3,40.857-.3S363.394,393.718,363.394,393.892Z" transform="translate(-238.755 9.586)" fill="#fff"/>
    <path id="Caminho_724" data-name="Caminho 724" d="M363.515,425.912c0,.163-18.1.3-40.427.3s-40.438-.139-40.438-.3,18.1-.3,40.438-.3S363.515,425.738,363.515,425.912Z" transform="translate(-238.598 14.774)" fill="#fff"/>
  </g>
  <g id="freepik--Plant--inject-106" transform="translate(71.824 439.048)">
    <path id="Caminho_725" data-name="Caminho 725" d="M97.134,411.393a11.945,11.945,0,0,1,7.518,5.589,21.311,21.311,0,0,1,2.777,9.145c.593,6.182-1.557,13-4.23,18.592-6.031-3.37-8.831-10.865-10.017-14.758-1.871-6.147-1.522-18.406,3.951-18.592" transform="translate(-80.926 -411.37)" fill="#455a64"/>
    <path id="Caminho_726" data-name="Caminho 726" d="M108.679,449.74a10.191,10.191,0,0,1,1.162-10.168,13.5,13.5,0,0,1,9.134-5.125,5.74,5.74,0,0,1,4.648,1.011,4.358,4.358,0,0,1,.976,4.323,8.889,8.889,0,0,1-2.533,3.835c-3.823,3.7-8.2,6.565-13.5,6.124" transform="translate(-78.388 -407.652)" fill="#455a64"/>
    <path id="Caminho_727" data-name="Caminho 727" d="M106.354,468.707a6.578,6.578,0,0,1-.081-1.278c0-.906,0-2.08-.093-3.486a35.546,35.546,0,0,1,1.162-11.446,21.869,21.869,0,0,1,5.961-9.8,14.872,14.872,0,0,1,2.847-2.057,7.8,7.8,0,0,1,.848-.418.872.872,0,0,1,.314-.116,23.754,23.754,0,0,0-3.788,2.824,22.555,22.555,0,0,0-5.81,9.691,38.277,38.277,0,0,0-1.313,11.318c0,1.476,0,2.661,0,3.486a8.727,8.727,0,0,1-.046,1.278Z" transform="translate(-78.665 -406.713)" fill="#263238"/>
    <path id="Caminho_728" data-name="Caminho 728" d="M96.92,419.45a2.941,2.941,0,0,1,.174.523q.174.593.418,1.534c.36,1.336.86,3.277,1.441,5.682,1.162,4.811,2.719,11.481,4.253,18.871s2.766,14.13,3.591,19.011c.407,2.44.72,4.416.93,5.81.093.651.163,1.162.221,1.58a2.813,2.813,0,0,1,0,.558,3.752,3.752,0,0,1-.139-.546c-.081-.407-.174-.918-.3-1.569-.267-1.406-.627-3.37-1.069-5.752-.906-4.869-2.185-11.62-3.718-18.976s-3.021-14.061-4.114-18.883c-.546-2.324-.988-4.311-1.3-5.717-.139-.639-.256-1.162-.337-1.557A2.463,2.463,0,0,1,96.92,419.45Z" transform="translate(-80.155 -410.061)" fill="#263238"/>
    <path id="Caminho_729" data-name="Caminho 729" d="M104.766,454.4a23.9,23.9,0,0,0-16.385-14.363c-1.871-.453-4.195-.511-5.334,1.046s-.337,3.765.72,5.38a20.405,20.405,0,0,0,20.916,8.518" transform="translate(-82.492 -406.77)" fill="#455a64"/>
    <path id="Caminho_730" data-name="Caminho 730" d="M89.32,444.73a7.142,7.142,0,0,1,1.162.244,13.2,13.2,0,0,1,1.36.4,16.492,16.492,0,0,1,1.755.639c.593.29,1.348.569,2.057.964a21.019,21.019,0,0,1,2.254,1.325,25.9,25.9,0,0,1,4.567,3.858A26.365,26.365,0,0,1,105.96,457a23.73,23.73,0,0,1,1.162,2.324,21.194,21.194,0,0,1,.779,2.138c.232.651.325,1.278.465,1.813a12.61,12.61,0,0,1,.256,1.394,6.972,6.972,0,0,1,.116,1.162c-.1,0-.291-1.7-1.162-4.311a20.919,20.919,0,0,0-.8-2.08,23.725,23.725,0,0,0-1.162-2.324,26.984,26.984,0,0,0-3.486-4.741,28.228,28.228,0,0,0-4.462-3.823c-.767-.488-1.487-.964-2.208-1.325a20.122,20.122,0,0,0-2.01-1C90.97,445.206,89.285,444.823,89.32,444.73Z" transform="translate(-81.386 -405.965)" fill="#263238"/>
  </g>
  <g id="freepik--speech-bubble--inject-106" transform="translate(25.829 52.628)">
    <path id="Caminho_731" data-name="Caminho 731" d="M133.752,163.5l-4.3-13.421a46.69,46.69,0,1,0-11.179,12.434h0Z" transform="translate(-42.894 -78.82)" fill="#fafafa"/>
    <path id="Caminho_732" data-name="Caminho 732" d="M133.769,163.507h-.976l-2.952-.151-11.62-.639a.128.128,0,0,1-.128-.139.163.163,0,0,1,0-.07h0l.186.186a46.562,46.562,0,0,1-28.249,9.866,52.291,52.291,0,0,1-7.727-.616,46.574,46.574,0,0,1-29.864-17.814,47.306,47.306,0,0,1-8.378-18.162,46.074,46.074,0,0,1,.186-21.242c.221-.883.453-1.778.686-2.661s.616-1.743.918-2.615a26.077,26.077,0,0,1,1.023-2.591c.4-.837.8-1.673,1.162-2.522a20.29,20.29,0,0,1,1.371-2.452l1.476-2.417,1.7-2.324.86-1.162c.291-.372.627-.709.941-1.069A46.481,46.481,0,0,1,72.937,81.967a47.875,47.875,0,0,1,21.393-2.94A46.926,46.926,0,0,1,134.907,113.4a51.858,51.858,0,0,1,1.441,7.669,61.508,61.508,0,0,1,.128,7.274,46.376,46.376,0,0,1-6.9,21.8v-.1c1.371,4.369,2.417,7.739,3.137,10.04.349,1.162.6,1.964.79,2.556l.256.86s-.116-.314-.314-.895l-.848-2.568c-.744-2.324-1.848-5.6-3.265-9.912a.151.151,0,0,1,0-.1,46.353,46.353,0,0,0,6.728-21.7,60.428,60.428,0,0,0-.163-7.2,50.781,50.781,0,0,0-1.453-7.6,46.481,46.481,0,0,0-40.16-33.9,47.3,47.3,0,0,0-21.126,2.893A46.016,46.016,0,0,0,54.879,95.3c-.3.36-.639.686-.93,1.057L53.1,97.515l-1.673,2.243-1.441,2.394a20.834,20.834,0,0,0-1.371,2.44c-.4.825-.79,1.662-1.162,2.487a25.321,25.321,0,0,0-1,2.556c-.3.86-.662,1.708-.918,2.58s-.453,1.755-.674,2.626a45.726,45.726,0,0,0-.209,20.916,46.3,46.3,0,0,0,37.87,35.663,53.034,53.034,0,0,0,7.658.639,45.724,45.724,0,0,0,7.146-.593,46.621,46.621,0,0,0,20.916-9.052.128.128,0,0,1,.186,0,.139.139,0,0,1,0,.163h0l-.093-.209,11.481.79,2.975.209Z" transform="translate(-42.911 -78.83)" fill="#263238"/>
    <path id="Caminho_733" data-name="Caminho 733" d="M73.259,119.8a4.729,4.729,0,1,1-4.729-4.729A4.729,4.729,0,0,1,73.259,119.8Z" transform="translate(-39.526 -72.958)" fill="#263238"/>
    <path id="Caminho_734" data-name="Caminho 734" d="M89.559,119.8a4.729,4.729,0,1,1-4.729-4.729A4.729,4.729,0,0,1,89.559,119.8Z" transform="translate(-36.885 -72.958)" fill="#263238"/>
    <path id="Caminho_735" data-name="Caminho 735" d="M105.731,117.44a4.729,4.729,0,1,1-2.877-2.209A4.729,4.729,0,0,1,105.731,117.44Z" transform="translate(-34.163 -72.958)" fill="#263238"/>
  </g>
  <g id="freepik--Character--inject-106" transform="translate(0 86.331)">
    <path id="Caminho_736" data-name="Caminho 736" d="M118.081,306.267,69.136,301.2,48.406,254.15,32.3,258.345s11.9,49.723,25.216,57.427,58.81,9.087,58.81,9.087Z" transform="translate(-18.801 -84.127)" fill="#fa320d"/>
    <circle id="Elipse_14" data-name="Elipse 14" cx="21.707" cy="21.707" r="21.707" transform="matrix(0.664, -0.747, 0.747, 0.664, 78.431, 233.456)" fill="#263238"/>
    <path id="Caminho_737" data-name="Caminho 737" d="M117.582,331.943a21.741,21.741,0,1,1,15.374-6.368,21.741,21.741,0,0,1-15.374,6.368Zm0-43.413a21.683,21.683,0,1,0,15.327,6.368,21.683,21.683,0,0,0-15.327-6.368Z" transform="translate(-8.506 -78.568)" fill="#263238"/>
    <circle id="Elipse_15" data-name="Elipse 15" cx="16.28" cy="16.28" r="16.28" transform="matrix(0.972, -0.233, 0.233, 0.972, 22.518, 207.502)" fill="#263238"/>
    <circle id="Elipse_16" data-name="Elipse 16" cx="13.305" cy="13.305" r="13.305" transform="translate(1.561 164.42) rotate(-45)" fill="#263238"/>
    <path id="Caminho_738" data-name="Caminho 738" d="M2.847,0H17.186V6.124H2.847A2.847,2.847,0,0,1,0,3.277V2.859A2.847,2.847,0,0,1,2.847,0Z" transform="matrix(-0.764, 0.645, -0.645, -0.764, 43.29, 155.382)" fill="#263238"/>
    <path id="Caminho_739" data-name="Caminho 739" d="M2.847,0H16.791A.407.407,0,0,1,17.2.407v5.3a.407.407,0,0,1-.407.407H2.847A2.847,2.847,0,0,1,0,3.265V2.847A2.847,2.847,0,0,1,2.847,0Z" transform="translate(27.2 137.428) rotate(90)" fill="#263238"/>
    <path id="Caminho_740" data-name="Caminho 740" d="M2.847,0H16.791A.407.407,0,0,1,17.2.407v5.3a.407.407,0,0,1-.407.407H2.847A2.847,2.847,0,0,1,0,3.265V2.847A2.847,2.847,0,0,1,2.847,0Z" transform="translate(16.711 137.549) rotate(77.39)" fill="#263238"/>
    <path id="Caminho_741" data-name="Caminho 741" d="M2.847,0H16.791A.407.407,0,0,1,17.2.407v5.3a.407.407,0,0,1-.407.407H2.847A2.847,2.847,0,0,1,0,3.265V2.847A2.847,2.847,0,0,1,2.847,0Z" transform="translate(5.293 141.273) rotate(60)" fill="#263238"/>
    <rect id="Retângulo_13" data-name="Retângulo 13" width="15.92" height="108.01" transform="translate(326.65 337.794) rotate(156.96)" fill="#fa320d"/>
    <circle id="Elipse_17" data-name="Elipse 17" cx="21.707" cy="21.707" r="21.707" transform="translate(239.321 236.397) rotate(-49.73)" fill="#263238"/>
    <path id="Caminho_742" data-name="Caminho 742" d="M256.035,333.9a21.73,21.73,0,1,1,21.582-19.587A21.753,21.753,0,0,1,256.035,333.9Zm0-43.437a21.683,21.683,0,1,0,20.742,28.075h0a21.717,21.717,0,0,0-20.812-28.075Z" transform="translate(13.924 -78.247)" fill="#263238"/>
    <circle id="Elipse_18" data-name="Elipse 18" cx="16.28" cy="16.28" r="16.28" transform="matrix(0.268, -0.963, 0.963, 0.268, 278.133, 305.735)" fill="#263238"/>
    <circle id="Elipse_19" data-name="Elipse 19" cx="13.305" cy="13.305" r="13.305" transform="translate(309.421 331.777)" fill="#263238"/>
    <path id="Caminho_743" data-name="Caminho 743" d="M2.847,0H17.163V6.124H2.847A2.847,2.847,0,0,1,0,3.277V2.859A2.847,2.847,0,0,1,2.847,0Z" transform="translate(303.839 360.912) rotate(-58.64)" fill="#263238"/>
    <path id="Caminho_744" data-name="Caminho 744" d="M2.812,0H16.757a.407.407,0,0,1,.407.407v5.3a.407.407,0,0,1-.407.407H2.812A2.847,2.847,0,0,1,0,3.23V2.812A2.847,2.847,0,0,1,2.812,0Z" transform="translate(324.763 372.811) rotate(-108.46)" fill="#263238"/>
    <path id="Caminho_745" data-name="Caminho 745" d="M2.847,0H16.791A.407.407,0,0,1,17.2.407v5.3a.407.407,0,0,1-.407.407H2.847A2.847,2.847,0,0,1,0,3.265V2.847A2.847,2.847,0,0,1,2.847,0Z" transform="matrix(-0.516, -0.857, 0.857, -0.516, 334.695, 369.406)" fill="#263238"/>
    <path id="Caminho_746" data-name="Caminho 746" d="M2.847,0H16.791A.407.407,0,0,1,17.2.407V5.694a.407.407,0,0,1-.407.407H2.847A2.847,2.847,0,0,1,0,3.254V2.835A2.847,2.847,0,0,1,2.847,0Z" transform="matrix(-0.748, -0.663, 0.663, -0.748, 344.34, 362.276)" fill="#263238"/>
    <path id="Caminho_747" data-name="Caminho 747" d="M109,290.788s1.569,152.388,87.082,155.363,89.1-154.271,89.1-155.363c0,0-10.1-22.718-88.093-21.834S109,290.788,109,290.788Z" transform="translate(-6.373 -81.732)" fill="#fa320d"/>
    <rect id="Retângulo_14" data-name="Retângulo 14" width="89.36" height="18.325" rx="7.35" transform="translate(231.46 182.236) rotate(180)" fill="#263238"/>
    <rect id="Retângulo_15" data-name="Retângulo 15" width="6.24" height="31.549" transform="translate(189.906 46.732) rotate(180)" fill="#263238"/>
    <circle id="Elipse_20" data-name="Elipse 20" cx="18.337" cy="18.337" r="18.337" transform="translate(255.881 109.216) rotate(-13.37)" fill="#fa320d"/>
    <circle id="Elipse_21" data-name="Elipse 21" cx="18.337" cy="18.337" r="18.337" transform="translate(70.923 107.756) rotate(-12.78)" fill="#fa320d"/>
    <path id="Caminho_748" data-name="Caminho 748" d="M190.542,142.166s-74.556-.895-86.339,63.725,51.245,65.782,69.385,67c8.216.558,25.809.616,41.333.337,34.373-.593,58.659-7.239,66.921-39.125a59.751,59.751,0,0,0,1.848-11.423C285.863,187.683,262.239,140.447,190.542,142.166Z" transform="translate(-7.387 -102.279)" fill="#fa320d"/>
    <path id="Caminho_749" data-name="Caminho 749" d="M242.859,232.538l-108.312,1.685a20.556,20.556,0,0,1-20.916-20.231h0a20.568,20.568,0,0,1,20.242-20.916l108.312-1.685A20.545,20.545,0,0,1,263.1,211.621h0a20.556,20.556,0,0,1-20.242,20.916Z" transform="translate(-5.624 -94.296)" fill="#263238"/>
    <path id="Caminho_750" data-name="Caminho 750" d="M152.823,210.008a6.6,6.6,0,1,1-5.206-7.751A6.6,6.6,0,0,1,152.823,210.008Z" transform="translate(-1.392 -92.555)" fill="#fff"/>
    <path id="Caminho_751" data-name="Caminho 751" d="M217.914,208.967a6.6,6.6,0,1,1-5.206-7.739,6.6,6.6,0,0,1,5.206,7.739Z" transform="translate(9.154 -92.722)" fill="#fff"/>
    <path id="Caminho_752" data-name="Caminho 752" d="M214.93,344.23a29.481,29.481,0,1,1-27.261-31.549A29.481,29.481,0,0,1,214.93,344.23Z" transform="translate(1.249 -74.656)" fill="#263238"/>
    <path id="Caminho_753" data-name="Caminho 753" d="M205.834,342.535a21.474,21.474,0,1,1-5.163-15.614,21.486,21.486,0,0,1,5.163,15.614Z" transform="translate(2.363 -73.542)" fill="#fff"/>
    <path id="Caminho_754" data-name="Caminho 754" d="M194.117,345.475a21.361,21.361,0,0,1-.2-3.544c-.058-2.219-.1-5.392-.1-9.3l.232.43L183,326.615h.616l-11.155,6.263c-.3.511.407-.686.337-.558h0v3.312c0,1.092,0,2.185-.058,3.254,0,2.138-.081,4.207-.116,6.205l-.3-.535,10.923,6.67h-.488c3.4-1.836,6.217-3.3,8.134-4.3a22.592,22.592,0,0,1,3.219-1.511,16.992,16.992,0,0,1-2.789,1.848c-1.882,1.162-4.648,2.8-8.134,4.811l-.244.139-.244-.139-11.062-6.449-.3-.174v-.372q0-3,.07-6.205v-6.507h0c-.07.128.639-1.057.337-.558l11.19-6.205.325-.174.3.186,10.911,6.67.244.151v.279c-.128,4.021-.256,7.251-.372,9.447a17.8,17.8,0,0,1-.221,3.312Z" transform="translate(3.726 -72.578)" fill="#fa320d"/>
    <circle id="Elipse_22" data-name="Elipse 22" cx="10.284" cy="10.284" r="10.284" transform="translate(172.25 14.544) rotate(-45)" fill="#fa320d"/>
    <path id="Caminho_755" data-name="Caminho 755" d="M167.4,206.29c.488.058.244,2.324,1.685,5.427a13.7,13.7,0,0,0,3.486,4.648,11.353,11.353,0,0,0,6.194,2.754,11.5,11.5,0,0,0,6.6-1.58,13.758,13.758,0,0,0,4.276-3.893c1.975-2.754,2.15-5.066,2.638-5.032.2,0,.4.581.4,1.673a10.272,10.272,0,0,1-1.162,4.462,13.712,13.712,0,0,1-4.648,5.148,12.515,12.515,0,0,1-16.152-1.476,13.631,13.631,0,0,1-3.626-5.9,10.11,10.11,0,0,1-.372-4.648C166.914,206.79,167.216,206.255,167.4,206.29Z" transform="translate(2.959 -91.882)" fill="#fff"/>
    <path id="Caminho_756" data-name="Caminho 756" d="M252.721,238.057a58.553,58.553,0,0,0,2.51-5.752,62.286,62.286,0,0,0,3.021-14.8,109.044,109.044,0,0,0,.349-15.106c-.081-1.941-.174-3.486-.267-4.648a8.138,8.138,0,0,1-.058-1.7,9.086,9.086,0,0,1,.29,1.673c.163,1.081.325,2.649.465,4.648a91.868,91.868,0,0,1-.174,15.246,57.65,57.65,0,0,1-3.219,14.9,29.375,29.375,0,0,1-1.975,4.195,9.586,9.586,0,0,1-.941,1.348Z" transform="translate(16.912 -93.541)" fill="#263238"/>
    <path id="Caminho_757" data-name="Caminho 757" d="M104.517,195.14a8.738,8.738,0,0,1-.36,1.662c-.151.523-.314,1.162-.465,1.929s-.383,1.6-.523,2.568a56.482,56.482,0,0,0-.813,6.775,59.576,59.576,0,0,0,.116,8.343,60.506,60.506,0,0,0,1.348,8.227,56.322,56.322,0,0,0,2,6.531c.314.918.674,1.72.965,2.44s.569,1.325.8,1.813a9.18,9.18,0,0,1,.651,1.569,9.3,9.3,0,0,1-.86-1.464,19.6,19.6,0,0,1-.895-1.79c-.325-.7-.72-1.5-1.057-2.417a49.8,49.8,0,0,1-2.138-6.542,56.31,56.31,0,0,1-1.418-8.32,55.463,55.463,0,0,1-.07-8.425,50.512,50.512,0,0,1,.953-6.821c.174-.964.418-1.813.616-2.568s.383-1.394.558-1.917a10.46,10.46,0,0,1,.593-1.592Z" transform="translate(-7.561 -93.688)" fill="#263238"/>
    <path id="Caminho_758" data-name="Caminho 758" d="M108.66,287.63l.442.128,1.3.442,4.95,1.743,3.579,1.278c1.313.442,2.766.86,4.311,1.336,3.1.918,6.6,2.115,10.574,3.044l6.194,1.592c2.161.546,4.439.953,6.786,1.464,4.648,1.069,9.749,1.8,15.106,2.661a269.821,269.821,0,0,0,34.954,2.5,267.765,267.765,0,0,0,34.954-2.5c5.322-.86,10.388-1.58,15.106-2.661,2.324-.5,4.648-.906,6.786-1.453l6.205-1.592c3.963-.93,7.46-2.126,10.563-3.044,1.546-.476,3-.895,4.311-1.336l3.579-1.278,4.95-1.743,1.3-.442a2.323,2.323,0,0,1,.453-.128l-.43.186-1.278.5-4.915,1.848-3.66,1.371c-1.3.453-2.754.883-4.3,1.383-3.1.953-6.589,2.173-10.563,3.137l-6.205,1.627c-2.15.558-4.439.976-6.786,1.5-4.648,1.092-9.761,1.836-15.106,2.719a262.764,262.764,0,0,1-35.035,2.545,264.157,264.157,0,0,1-35.023-2.556c-5.334-.871-10.458-1.627-15.106-2.719-2.324-.523-4.648-.941-6.786-1.5l-6.205-1.627c-3.974-.964-7.46-2.185-10.563-3.137-1.545-.5-2.986-.93-4.3-1.383l-3.567-1.336-4.915-1.848-1.278-.5A2.325,2.325,0,0,1,108.66,287.63Z" transform="translate(-6.428 -78.702)" fill="#263238"/>
    <g id="Grupo_22" data-name="Grupo 22" transform="translate(102.627 187.194)" opacity="0.3">
      <path id="Caminho_759" data-name="Caminho 759" d="M109,290.788s10.1-20.916,88.093-21.834,88.093,21.834,88.093,21.834S206.471,329.588,109,290.788Z" transform="translate(-109 -268.927)"/>
    </g>
    <path id="Caminho_760" data-name="Caminho 760" d="M180.606,146.326a1.417,1.417,0,0,1-.267,0l-.779.081c-.7.07-1.72.093-3.033.244a82.626,82.626,0,0,0-11,1.824,78.925,78.925,0,0,0-46.481,30.887,81.586,81.586,0,0,0-12.132,24.751c-.407,1.255-.628,2.254-.825,2.917l-.221.767a1.163,1.163,0,0,1-.093.256.778.778,0,0,1,0-.267,4.456,4.456,0,0,1,.163-.779c.163-.674.337-1.685.709-2.963a73.72,73.72,0,0,1,3.718-10.563,78.484,78.484,0,0,1,55.068-45.424,73.212,73.212,0,0,1,11.074-1.638c1.325-.116,2.324-.1,3.044-.139h.79A.893.893,0,0,1,180.606,146.326Z" transform="translate(-6.898 -101.605)" fill="#fff"/>
    <path id="Caminho_761" data-name="Caminho 761" d="M107.815,225.666a8.959,8.959,0,0,1-1.069-2.324,33.152,33.152,0,0,1-1.894-12.108,8.134,8.134,0,0,1,.3-2.533c.186,0-.07,3.881.674,8.576S107.99,225.6,107.815,225.666Z" transform="translate(-7.048 -91.491)" fill="#fff"/>
    <path id="Caminho_762" data-name="Caminho 762" d="M91.046,220.88a3.533,3.533,0,0,1-.627-.627,10.656,10.656,0,0,1-1.313-2.034,13.224,13.224,0,0,1,1.987-14.99,10.306,10.306,0,0,1,1.8-1.627,2.51,2.51,0,0,1,.767-.442c.07.093-.976.8-2.243,2.324a13.712,13.712,0,0,0-1.929,14.525C90.3,219.857,91.128,220.81,91.046,220.88Z" transform="translate(-9.836 -92.713)" fill="#fff"/>
    <path id="Caminho_763" data-name="Caminho 763" d="M183.367,114.25a15.476,15.476,0,0,0-2.731-.058,7.123,7.123,0,0,0-6.089,9.482,15.246,15.246,0,0,0,1.162,2.452,2.7,2.7,0,0,1-.558-.511,6.275,6.275,0,0,1-1.046-1.8,7.3,7.3,0,0,1,6.461-10.052,6.345,6.345,0,0,1,2.068.2C183.158,114.041,183.367,114.215,183.367,114.25Z" transform="translate(4.088 -106.876)" fill="#fff"/>
    <path id="Caminho_764" data-name="Caminho 764" d="M270.529,206.665c-.128.139-1.929-1.592-4.648-2.893s-5.194-1.685-5.171-1.871a10.691,10.691,0,0,1,5.427,1.325A10.528,10.528,0,0,1,270.529,206.665Z" transform="translate(18.208 -92.593)" fill="#fff"/>
    <path id="Caminho_765" data-name="Caminho 765" d="M135.313,394.991a1.446,1.446,0,0,1-.139-.221l-.383-.686c-.349-.662-.813-1.546-1.418-2.673-.3-.581-.627-1.232-1-1.929l-1.092-2.324c-.79-1.685-1.673-3.6-2.545-5.81-.442-1.081-.906-2.219-1.394-3.393s-.906-2.452-1.383-3.742c-1-2.568-1.848-5.392-2.835-8.32-1.824-5.926-3.614-12.492-5.183-19.464s-2.708-13.7-3.637-19.824-1.534-11.62-1.906-16.338c-.221-2.324-.36-4.439-.476-6.3s-.221-3.486-.256-4.764-.07-2.266-.1-3.01v-.779a.953.953,0,0,1,0-.267.9.9,0,0,1,0,.267l.07.779c0,.732.128,1.743.209,3s.2,2.905.36,4.753.314,3.963.569,6.287c.418,4.648,1.162,10.179,2.034,16.268s2.138,12.782,3.672,19.754,3.335,13.526,5.113,19.441c.988,2.928,1.813,5.74,2.789,8.309.465,1.3.906,2.545,1.348,3.742l1.348,3.416c.837,2.173,1.7,4.1,2.463,5.81l1.046,2.324c.337.709.662,1.36.953,1.952l1.3,2.719.325.709A.9.9,0,0,1,135.313,394.991Z" transform="translate(-5.96 -77.484)" fill="#fff"/>
    <path id="Caminho_766" data-name="Caminho 766" d="M95.232,299.713a57.971,57.971,0,0,1-8.494-.3,60.308,60.308,0,0,1-8.448-.895,57.975,57.975,0,0,1,8.494.3,60.028,60.028,0,0,1,8.448.895Z" transform="translate(-11.349 -76.945)" fill="#fff"/>
    <path id="Caminho_767" data-name="Caminho 767" d="M56.408,280.327a62.879,62.879,0,0,1-4.427-7.518A62.753,62.753,0,0,1,48.1,265a63.44,63.44,0,0,1,4.416,7.53,61.355,61.355,0,0,1,3.893,7.8Z" transform="translate(-16.241 -82.369)" fill="#fff"/>
    <path id="Caminho_768" data-name="Caminho 768" d="M171.343,415.3a6.813,6.813,0,0,1-1.36-.163,30.214,30.214,0,0,1-3.637-.883,39.345,39.345,0,0,1-5.183-1.987,44.157,44.157,0,0,1-5.88-3.416,43,43,0,0,1-5.206-4.381,38,38,0,0,1-3.626-4.207,27.182,27.182,0,0,1-2.057-3.126,6.03,6.03,0,0,1-.616-1.22c.093-.058,1.069,1.627,3.01,4.09a43.329,43.329,0,0,0,3.684,4.067,42.518,42.518,0,0,0,10.935,7.693,45.333,45.333,0,0,0,5.066,2.08C169.449,414.85,171.367,415.187,171.343,415.3Z" transform="translate(-0.738 -61.157)" fill="#fff"/>
    <path id="Caminho_769" data-name="Caminho 769" d="M187.752,374.244a5.638,5.638,0,0,1-.813.081,21.323,21.323,0,0,1-2.324.07,31.164,31.164,0,0,1-8.518-1.383,37.453,37.453,0,0,1-5.554-2.231,36.131,36.131,0,0,1-5.81-3.73,31.235,31.235,0,0,1-12.062-27.772,35.884,35.884,0,0,1,1.22-6.763,35.14,35.14,0,0,1,2.15-5.578,30.921,30.921,0,0,1,4.811-7.17,20.67,20.67,0,0,1,1.65-1.673,5.711,5.711,0,0,1,.616-.535s-.767.825-2.092,2.324a32.631,32.631,0,0,0-4.648,7.2,33.641,33.641,0,0,0-3.207,12.19,31.014,31.014,0,0,0,11.853,27.3,35.487,35.487,0,0,0,5.647,3.719,36.027,36.027,0,0,0,5.45,2.324,32.538,32.538,0,0,0,8.4,1.545C186.625,374.244,187.752,374.174,187.752,374.244Z" transform="translate(0.679 -73.853)" fill="#fff"/>
    <path id="Caminho_770" data-name="Caminho 770" d="M63.878,287.8c0,.093-.895-.337-2.324-.674a12.968,12.968,0,0,0-10.993,2.638c-1.162.965-1.72,1.731-1.8,1.673a5.369,5.369,0,0,1,1.441-2,12.027,12.027,0,0,1,11.376-2.719,5.578,5.578,0,0,1,2.3,1.081Z" transform="translate(-16.134 -78.922)" fill="#fff"/>
    <path id="Caminho_771" data-name="Caminho 771" d="M218.327,188.2c0,.163-14.27.3-31.863.3s-31.874-.139-31.874-.3,14.27-.3,31.874-.3S218.327,188.016,218.327,188.2Z" transform="translate(1.013 -94.861)" fill="#fff"/>
    <path id="Caminho_772" data-name="Caminho 772" d="M169.789,252.372a2.186,2.186,0,0,1-.535.081l-1.557.139c-.674.058-1.5.1-2.463.128s-2.057.07-3.265,0a83.011,83.011,0,0,1-8.506-.511,94.311,94.311,0,0,1-10.284-1.778,93.088,93.088,0,0,1-9.993-3,82.63,82.63,0,0,1-7.832-3.335c-1.162-.511-2.057-1.046-2.905-1.5s-1.569-.86-2.15-1.162l-1.336-.813a2.428,2.428,0,0,1-.442-.314,1.027,1.027,0,0,1,.5.209l1.394.709c.593.325,1.325.709,2.185,1.162s1.836.918,2.94,1.406c2.185,1.023,4.846,2.115,7.844,3.2a91.66,91.66,0,0,0,20.15,4.741c3.161.372,6.031.581,8.436.639,1.162.07,2.324,0,3.265,0h4.009A1.662,1.662,0,0,1,169.789,252.372Z" transform="translate(-4.831 -86.369)" fill="#fff"/>
    <path id="Caminho_773" data-name="Caminho 773" d="M258.64,295.75a1,1,0,0,1-.279.128l-.837.314-3.23,1.162c-1.406.511-3.126,1.1-5.159,1.7s-4.323,1.36-6.914,2.01l-4.044,1.069c-1.406.36-2.893.662-4.416,1.023-3.045.732-6.345,1.313-9.808,1.975a206.239,206.239,0,0,1-45.7,2.8c-3.486-.221-6.868-.4-9.982-.755-1.557-.163-3.068-.279-4.509-.476l-4.148-.569c-2.649-.314-5.02-.79-7.1-1.162s-3.881-.72-5.334-1.057l-3.347-.744-.872-.209a1.047,1.047,0,0,1-.29-.093,1.883,1.883,0,0,1,.314,0l.872.151,3.37.639c1.464.29,3.254.628,5.345.941s4.451.767,7.1,1.057l4.137.523c1.441.186,2.952.291,4.509.442,3.1.337,6.449.488,9.959.7,7.03.291,14.758.3,22.869-.174a219.533,219.533,0,0,0,22.706-2.626c3.486-.639,6.763-1.162,9.808-1.906,1.522-.349,3.01-.639,4.416-.988l4.044-1.034c2.591-.616,4.88-1.336,6.914-1.917s3.777-1.162,5.183-1.592l3.265-1.046.86-.256Z" transform="translate(-0.918 -77.387)" fill="#fff"/>
  </g>
</svg>
